# Blender 3.3.0
# www.blender.org
mtllib Map_2.mtl
o Plane
v -3.970015 0.000000 3.970015
v 3.970015 0.000000 3.970015
v -3.970015 0.000000 -3.970015
v 3.970015 0.000000 -3.970015
v -0.155723 0.000000 -0.597758
v -0.155723 0.000000 -0.849258
v -0.753035 0.000000 -0.849258
v -0.753035 0.000000 -0.251945
v -0.061410 0.000000 -0.503445
v 0.661652 0.000000 -0.503445
v 0.661652 0.000000 0.533992
v -0.438660 0.000000 -0.251945
v -0.438660 0.000000 0.219617
v -0.438660 0.000000 0.251055
v -0.753035 0.000000 0.251055
v -0.753035 0.000000 0.848367
v -0.092848 0.000000 0.533992
v -0.092848 0.000000 0.754055
v -0.124285 0.000000 0.754055
v -0.218598 0.000000 0.848367
vn -0.0000 1.0000 -0.0000
vt 0.000000 0.000000
vt 1.000000 0.000000
vt 0.000000 1.000000
vt 1.000000 1.000000
vt 0.422139 0.798879
vt 0.422139 0.924629
vt 0.123482 0.924629
vt 0.123482 0.625973
vt 0.469295 0.751723
vt 0.830826 0.751723
vt 0.830826 0.233004
vt 0.280670 0.625973
vt 0.280670 0.390191
vt 0.280670 0.374473
vt 0.123482 0.374473
vt 0.123482 0.075816
vt 0.453576 0.233004
vt 0.453576 0.122973
vt 0.437857 0.122973
vt 0.390701 0.075816
s 0
usemtl Material.001
f 1/1/1 2/2/1 4/4/1 10/10/1 11/11/1 17/17/1 18/18/1 19/19/1 20/20/1 16/16/1
f 15/15/1 14/14/1 13/13/1 12/12/1 8/8/1 7/7/1 6/6/1 5/5/1 9/9/1 10/10/1 4/4/1 3/3/1 1/1/1 16/16/1
